<svg width="656" height="152" viewBox="0 0 656 152" fill="none" xmlns="http://www.w3.org/2000/svg">
<path d="M142 94C135.938 100.062 128.214 104.191 119.805 105.863C111.396 107.536 102.68 106.678 94.7596 103.397C86.8387 100.116 80.0686 94.5597 75.3055 87.4312C70.5423 80.3026 68 71.9217 68 63.3482C68 54.7747 70.5423 46.3938 75.3055 39.2652C80.0686 32.1367 86.8387 26.5806 94.7596 23.2997C102.68 20.0188 111.396 19.1603 119.805 20.8329C128.214 22.5055 135.938 26.6341 142 32.6964L129.097 45.5989C125.587 42.0884 121.114 39.6978 116.245 38.7292C111.376 37.7607 106.329 38.2578 101.742 40.1576C97.1557 42.0575 93.2354 45.2748 90.4772 49.4027C87.7191 53.5306 86.2469 58.3836 86.2469 63.3482C86.2469 68.3128 87.7191 73.1658 90.4772 77.2937C93.2354 81.4216 97.1557 84.6389 101.742 86.5388C106.329 88.4386 111.376 88.9357 116.245 87.9672C121.114 86.9986 125.587 84.608 129.097 81.0975L142 94Z" fill="url(#paint0_radial_136_230)"/>
<rect x="20" y="120" width="170" height="12" fill="#F2F2F2"/>
<rect x="20" y="120" width="1" height="12" fill="#F2F2F2"/>
<path d="M349 94C342.937 100.062 335.213 104.191 326.805 105.863C318.396 107.536 309.68 106.678 301.759 103.397C293.838 100.116 287.068 94.5597 282.305 87.4312C277.542 80.3026 275 71.9217 275 63.3482C275 54.7747 277.542 46.3938 282.305 39.2652C287.068 32.1367 293.838 26.5806 301.759 23.2997C309.68 20.0188 318.396 19.1603 326.805 20.8329C335.213 22.5055 342.937 26.6341 349 32.6964L336.097 45.5989C332.587 42.0885 328.114 39.6978 323.245 38.7292C318.376 37.7607 313.329 38.2578 308.742 40.1576C304.155 42.0575 300.235 45.2748 297.477 49.4027C294.719 53.5306 293.246 58.3836 293.246 63.3482C293.246 68.3128 294.719 73.1658 297.477 77.2937C300.235 81.4216 304.155 84.6389 308.742 86.5388C313.329 88.4386 318.376 88.9357 323.245 87.9672C328.114 86.9986 332.587 84.608 336.097 81.0975L349 94Z" fill="url(#paint1_radial_136_230)"/>
<path d="M313.772 63.3482V52.5111H322.2V63.3482H330.629V74.1852H322.2V85.0223H313.772V74.1852H305.343V63.3482H313.772Z" fill="url(#paint2_radial_136_230)"/>
<rect x="227" y="120" width="170" height="12" fill="#F2F2F2"/>
<rect x="227" y="120" width="70" height="12" fill="#620000"/>
<path d="M556 94C549.938 100.062 542.214 104.191 533.805 105.863C525.396 107.536 516.68 106.678 508.76 103.397C500.839 100.116 494.069 94.5597 489.305 87.4312C484.542 80.3026 482 71.9217 482 63.3482C482 54.7747 484.542 46.3938 489.305 39.2652C494.069 32.1367 500.839 26.5806 508.76 23.2997C516.68 20.0188 525.396 19.1603 533.805 20.8329C542.214 22.5055 549.938 26.6341 556 32.6964L543.097 45.5989C539.587 42.0885 535.114 39.6978 530.245 38.7292C525.376 37.7607 520.329 38.2578 515.742 40.1576C511.156 42.0575 507.235 45.2748 504.477 49.4027C501.719 53.5306 500.247 58.3836 500.247 63.3482C500.247 68.3128 501.719 73.1658 504.477 77.2937C507.235 81.4216 511.156 84.6389 515.742 86.5388C520.329 88.4386 525.376 88.9357 530.245 87.9672C535.114 86.9986 539.587 84.608 543.097 81.0975L556 94Z" fill="url(#paint3_radial_136_230)"/>
<path d="M528.961 46.0087C528.961 48.0038 527.343 49.6211 525.348 49.6211C523.353 49.6211 521.736 48.0038 521.736 46.0087C521.736 44.0137 523.353 42.3964 525.348 42.3964C527.343 42.3964 528.961 44.0137 528.961 46.0087Z" fill="url(#paint4_radial_136_230)"/>
<path d="M520.772 63.3482V52.5111H529.201V63.3482H537.63V74.1852H529.201V85.0223H520.772V74.1852H512.343V63.3482H520.772Z" fill="url(#paint5_radial_136_230)"/>
<rect x="434" y="120" width="170" height="12" fill="#F2F2F2"/>
<rect x="434" y="120" width="170" height="12" fill="#620000"/>
<rect x="0.5" y="0.5" width="655" height="151" rx="4.5" stroke="#9747FF" stroke-dasharray="10 5"/>
<defs>
<radialGradient id="paint0_radial_136_230" cx="0" cy="0" r="1" gradientUnits="userSpaceOnUse" gradientTransform="translate(121.793 51.8152) rotate(154.717) scale(111.738 261.155)">
<stop stop-color="#C60000"/>
<stop offset="1" stop-color="#620000"/>
</radialGradient>
<radialGradient id="paint1_radial_136_230" cx="0" cy="0" r="1" gradientUnits="userSpaceOnUse" gradientTransform="translate(328.793 51.8152) rotate(154.717) scale(111.738 261.155)">
<stop stop-color="#620000"/>
<stop offset="1" stop-color="#C60000"/>
</radialGradient>
<radialGradient id="paint2_radial_136_230" cx="0" cy="0" r="1" gradientUnits="userSpaceOnUse" gradientTransform="translate(314.622 61.3888) rotate(72.5899) scale(46.5198 80.3804)">
<stop stop-color="#620000"/>
<stop offset="1" stop-color="#C60000"/>
</radialGradient>
<radialGradient id="paint3_radial_136_230" cx="0" cy="0" r="1" gradientUnits="userSpaceOnUse" gradientTransform="translate(535.793 51.8152) rotate(154.717) scale(111.738 261.155)">
<stop stop-color="#C60000"/>
<stop offset="1" stop-color="#620000"/>
</radialGradient>
<radialGradient id="paint4_radial_136_230" cx="0" cy="0" r="1" gradientUnits="userSpaceOnUse" gradientTransform="translate(524.387 44.3692) rotate(68.0423) scale(10.6356 22.3226)">
<stop stop-color="#C60000"/>
<stop offset="1" stop-color="#620000"/>
</radialGradient>
<radialGradient id="paint5_radial_136_230" cx="0" cy="0" r="1" gradientUnits="userSpaceOnUse" gradientTransform="translate(521.623 61.3888) rotate(72.5899) scale(46.5198 80.3804)">
<stop stop-color="#C60000"/>
<stop offset="1" stop-color="#620000"/>
</radialGradient>
</defs>
</svg>
